HIERARCHY
ROOT Hips
{
	OFFSET	0.00	0.00	0.00
	CHANNELS 6 Xposition Yposition Zposition Zrotation Xrotation Yrotation
	JOINT Spine
	{
		OFFSET	 0.00	0.01	 0.00
		CHANNELS 3 Zrotation Xrotation Yrotation
		JOINT Spine1
		{
			OFFSET	 0.00	 2.45913012437421	 0.00
			CHANNELS 3 Zrotation Xrotation Yrotation
            JOINT Neck
            {
                OFFSET	 0.00	 2.48462964506057	 0.00
                CHANNELS 3 Zrotation Xrotation Yrotation
                JOINT Head
                {
                    OFFSET	 0.00	 0.927524780924562	 0.00
                    CHANNELS 3 Zrotation Xrotation Yrotation
                    End Site 
                    {
                        OFFSET	 0.00	 1.14999962169752	 0.00
                    }
                }
            }
			JOINT LeftShoulder
			{
				OFFSET	 0.00	 2.48462964506057	 0.00
				CHANNELS 3 Zrotation Xrotation Yrotation
				JOINT LeftUpArm
				{
					OFFSET	 0.00	 1.24881979654096	 0.00
					CHANNELS 3 Zrotation Xrotation Yrotation
					JOINT LeftForeArm
					{
						OFFSET	 0.00	2.59758046908119	 0.00
						CHANNELS 3 Zrotation Xrotation Yrotation
						JOINT LeftHand
						{
							OFFSET	 0.00	2.45542024364365	 0.00
							CHANNELS 3 Zrotation Xrotation Yrotation
							JOINT LeftHandThumb 
							{
								OFFSET	 0.00	0.00	 0.00
								CHANNELS 3 Zrotation Xrotation Yrotation
								End Site
								{
									OFFSET	 0.00	0.00	1.00000003353624
								}
							}
							JOINT L_Wrist_End 
							{
								OFFSET	 0.00	0.99999967115358	 0.00
								CHANNELS 3 Zrotation Xrotation Yrotation
								End Site 
								{
									OFFSET	 0.00	 0.00	 0.00
								}
							}
						}
					}
				}
			}
			JOINT RightShoulder
			{
				OFFSET	 0.00	 2.48462964506057	 0.00
				CHANNELS 3 Zrotation Xrotation Yrotation
				JOINT RightUpArm
				{
					OFFSET	 0.00	 1.24881979654096	 0.00
					CHANNELS 3 Zrotation Xrotation Yrotation
					JOINT RightForeArm
					{
						OFFSET	 0.00	2.59758046908119	 0.00
						CHANNELS 3 Zrotation Xrotation Yrotation
						JOINT RightHand
						{
							OFFSET	 0.00	2.45542024364365	 0.00
							CHANNELS 3 Zrotation Xrotation Yrotation
							JOINT RightHandThumb 
							{
								OFFSET	 0.00	0.00	 0.00
								CHANNELS 3 Zrotation Xrotation Yrotation
								End Site
								{
									OFFSET	 0.00	0.00	1.00000003353624
								}
							}
							JOINT R_Wrist_End 
							{
								OFFSET	 0.00	0.99999967115358	 0.00
								CHANNELS 3 Zrotation Xrotation Yrotation
								End Site 
								{
									OFFSET	 0.00	 0.00	 0.00
								}
							}
						}
					}
				}
			}
		}
	}
	JOINT LeftUpLeg
	{
		OFFSET	 1.2719394002717	 0.00	 0.00
		CHANNELS 3 Zrotation Xrotation Yrotation
		JOINT LeftLowLeg
		{
			OFFSET	 0.00	-4.3429100912261	 0.00
			CHANNELS 3 Zrotation Xrotation Yrotation
			JOINT LeftFoot
			{
				OFFSET	 0.00	-4.48767017425826	 0.00
				CHANNELS 3 Zrotation Xrotation Yrotation
				JOINT LeftToeBase
                {
                    OFFSET	 0.00	0.00	 1.51507020887566
                    CHANNELS 3 Zrotation Xrotation Yrotation
                    End Site 
                    {
                        OFFSET	 0.00	0.00	 0.75000010571191
                    }
                }
			}
		}
	}
	JOINT RightUpLeg
	{
		OFFSET	 -1.2719393604653	 0.00	 0.00
		CHANNELS 3 Zrotation Xrotation Yrotation
		JOINT RightLowLeg
		{
			OFFSET	 0.00	-4.3429100912261	 0.00
			CHANNELS 3 Zrotation Xrotation Yrotation
			JOINT RightFoot
			{
				OFFSET	 0.00	-4.48767017425826	 0.00
				CHANNELS 3 Zrotation Xrotation Yrotation
				JOINT RightToeBase
                {
                    OFFSET	 0.00	0.00	 1.51507020887566
                    CHANNELS 3 Zrotation Xrotation Yrotation
                    End Site 
                    {
                        OFFSET	 0.00	0.00	 0.749999965609858
                    }
                }   
			}
		}
	}
}
MOTION 
Frames:	15 
Frame Time: 0.02 
  -0.788104019165039 -8.532730102539062 9.254219970703126 -100.184 81.7144 859.95 4.54748 -15.058 -1.65225 -3.33091 8.28228 -7.43271 -7.79409 37.6199 -28.9103 70.3541 -44.2487 96.6687 -116.2277 5.28532 13.5153 -49.7013 29.2148 61.4322 0.0 83.6272 0.0 -3.88732 -11.0767 -6.33004 0.0 0.0 0.0 0.0 0.0 0.0 112.0603 -11.4322 1.59778 52.6102 -11.0087 -332.771 0.0 131.331 0.0 -7.18233 -18.1783 12.7278 0.0 0.0 0.0 0.0 0.0 0.0 -7.62435 -8.94316 -25.887 0.0 20.7855 0.0 7.43588 -5.7157993 20.438 0.0 -12.13106 0.0 6.72187 -26.2481 393.453 0.0 25.6162 0.0 13.6801 -0.3661003 -15.4771 0.0 -19.81631 0.0 
  -0.7407140350341797 -8.627509765625 9.246240234375 -100.837 81.706 862.661 4.52308 -15.3438 -1.62416 -3.39462 8.52105 -7.34316 -6.61828 38.2028 -30.9749 69.8483 -44.6503 96.1245 -116.421 4.99383 13.4239 -49.4918 29.2886 61.1503 0.0 83.381 0.0 -4.78865 -10.9202 -3.49207 0.0 0.0 0.0 0.0 0.0 0.0 112.1637 -11.1346 1.41704 52.4583 -10.6421 -332.686 0.0 131.365 0.0 -6.69372 -17.7346 12.7561 0.0 0.0 0.0 0.0 0.0 0.0 -7.6827 -8.4528 -27.0526 0.0 20.7891 0.0 7.51297 -6.1835995 19.6682 0.0 -12.17737 0.0 6.04971 -26.5135 398.052 0.0 22.9743 0.0 12.2421 -0.3072996 -15.3532 0.0 -20.04188 0.0 
  -0.6895690155029297 -8.725239868164062 9.238040161132812 -101.086 81.7916 865.041 4.54722 -15.5302 -1.48673 -3.51813 8.71549 -7.17791 -5.35782 38.6493 -33.1934 69.2149 -45.1021 95.4734 -116.6702 4.82013 13.4886 -49.121 29.5066 60.9038 0.0 83.3479 0.0 -7.00194 -11.5171 -8.33343 0.0 0.0 0.0 0.0 0.0 0.0 112.2816 -11.1563 1.44166 52.3007 -10.346 -332.714 0.0 131.298 0.0 -6.1154 -17.0752 13.4309 0.0 0.0 0.0 0.0 0.0 0.0 -7.65511 -7.82462 -27.9607 0.0 20.7322 0.0 7.37354 -6.7141 18.4949 0.0 -12.183371 0.0 5.24433 -26.6048 402.208 0.0 20.539 0.0 11.5984 -0.6036997 -14.9794 0.0 -19.79116 0.0 
  -0.6327479934692383 -8.8260498046875 9.230280151367188 -100.724 81.9509 866.975 5.17881 -15.3848 -0.854984 -4.57884 8.29667 -7.03925 -3.38939 39.5252 -36.1473 68.6998 -45.4024 95.0748 -116.428696 5.25036 13.8799 -48.8875 29.031 61.1021 0.0 83.2394 0.0 -6.69016 -10.9876 -10.3946 0.0 0.0 0.0 0.0 0.0 0.0 112.8828 -11.5243 1.40707 52.0434 -10.4228 -332.934 0.0 131.504 0.0 -6.96088 -17.1399 13.1077 0.0 0.0 0.0 0.0 0.0 0.0 -7.53034 -7.04933 -28.8465 0.0 20.6051 0.0 7.19923 -7.2868996 17.1969 0.0 -12.16291 0.0 4.28426 -26.426 405.613 0.0 18.3154 0.0 11.5414 -1.2947998 -14.4375 0.0 -19.47137 0.0 
  -0.572156982421875 -8.931729736328125 9.222860107421875 -99.1462 82.1718 867.938 5.33731 -15.5223 -0.845781 -4.67521 8.47014 -7.09913 -2.46667 40.0478 -38.07 68.0243 -45.9903 94.3 -116.600204 5.34558 14.025 -48.5971 28.9914 60.9423 0.0 83.1918 0.0 -8.14002 -11.215 -11.4754 0.0 0.0 0.0 0.0 0.0 0.0 112.9103 -11.1794 1.31654 52.1071 -10.6472 -332.857 0.0 131.54 0.0 -8.59972 -15.481 12.6567 0.0 0.0 0.0 0.0 0.0 0.0 -7.28175 -6.14494 -29.9671 0.0 20.578 0.0 7.09449 -7.9034996 15.9813 0.0 -11.997931 0.0 3.29379 -25.9779 407.786 0.0 16.3219 0.0 12.2179 -1.9550991 -13.5473 0.0 -19.187729 0.0 
  -0.5089400100708008 -9.043170166015624 9.216190185546875 -97.0472 82.3591 868.636 5.44886 -15.7529 -0.947742 -4.6398 8.67427 -7.23202 -1.57045 40.46 -40.0408 67.3059 -46.6718 93.6143 -116.747696 5.54036 13.9566 -48.5085 28.7363 61.1126 0.0 83.0169 0.0 -7.9269 -11.0599 -9.69197 0.0 0.0 0.0 0.0 0.0 0.0 113.062 -11.0846 1.34416 52.0216 -10.5837 -332.857 0.0 131.781 0.0 -8.94346 -15.4397 13.6341 0.0 0.0 0.0 0.0 0.0 0.0 -6.90196 -5.28663 -31.2034 0.0 20.6059 0.0 7.04409 -8.4524 14.6634 0.0 -12.16562 0.0 2.35092 -25.367 408.902 0.0 14.7888 0.0 13.5865 -2.4384995 -12.6669 0.0 -19.69277 0.0 
  -0.44383399963378906 -9.164320068359375 9.211329956054687 -93.1943 82.6418 867.638 5.41489 -15.9697 -1.18103 -4.26968 9.05978 -7.36107 -0.619775 40.7701 -42.0879 66.6623 -47.3935 93.198 -116.9639 5.66813 13.8764 -48.4641 28.6586 61.2369 0.0 82.7993 0.0 -9.01274 -11.0154 -10.8573 0.0 0.0 0.0 0.0 0.0 0.0 113.1514 -10.9867 1.6619 51.9111 -10.6296 -332.992 0.0 131.877 0.0 -9.59401 -15.2899 13.095 0.0 0.0 0.0 0.0 0.0 0.0 -6.28582 -4.27264 -32.4183 0.0 20.731 0.0 6.78351 -9.174999 13.2242 0.0 -12.15402 0.0 1.88578 -24.461 408.69 0.0 14.0696 0.0 14.8706 -2.7033997 -11.7596 0.0 -19.750679 0.0 
  -0.3744060134887695 -9.294669799804687 9.207579956054687 -87.8921 82.9302 865.306 5.25163 -16.2696 -1.68551 -3.63065 9.54376 -7.66765 -0.186311 41.052 -43.4659 65.9959 -48.1107 92.6649 -117.1903 5.55907 13.7191 -48.4511 28.6883 61.5153 0.0 82.5963 0.0 -8.30103 -11.2643 -8.46439 0.0 0.0 0.0 0.0 0.0 0.0 113.023 -10.57 1.66053 51.9636 -10.4729 -332.75 0.0 131.819 0.0 -9.39309 -14.87 13.9346 0.0 0.0 0.0 0.0 0.0 0.0 -5.50784 -3.20955 -33.8721 0.0 21.0068 0.0 6.46919 -9.9692 11.9213 0.0 -12.08242 0.0 1.91061 -23.3877 407.508 0.0 14.3886 0.0 16.5126 -2.4799995 -10.3742 0.0 -19.561161 0.0 
  -0.3025869941711426 -9.431010131835938 9.202490234375 -83.8524 82.9146 864.199 5.34283 -16.7093 -1.83014 -3.52082 9.55394 -7.83602 0.794005 41.5448 -45.3079 65.629 -48.6699 92.5776 -117.1868 5.48523 13.7982 -48.5129 28.8074 61.9209 0.0 82.3438 0.0 -8.35182 -11.3822 -9.41315 0.0 0.0 0.0 0.0 0.0 0.0 113.1343 -10.7575 1.78354 52.0606 -10.3046 -332.576 0.0 131.667 0.0 -7.45715 -14.9584 15.1956 0.0 0.0 0.0 0.0 0.0 0.0 -4.66371 -2.58071 -35.3143 0.0 21.4465 0.0 6.33208 -10.759701 10.7117 0.0 -12.108 0.0 2.40719 -22.6916 405.881 0.0 15.9881 0.0 16.7016 -0.6697998 -8.62925 0.0 -20.34054 0.0 
  -0.22986499786376954 -9.567760009765625 9.1977001953125 -78.9159 82.8923 862.107 5.75552 -16.8501 -1.63382 -3.78394 9.08752 -7.95825 1.81945 42.3218 -47.0354 65.2172 -49.066 92.1898 -117.0143 5.55551 14.0798 -48.6734 28.7613 62.4437 0.0 82.0698 0.0 -8.23965 -11.3869 -8.97502 0.0 0.0 0.0 0.0 0.0 0.0 113.3505 -11.0669 1.67512 52.1245 -10.2301 -332.593 0.0 131.576 0.0 -7.5051 -15.0499 15.3274 0.0 0.0 0.0 0.0 0.0 0.0 -3.76293 -1.91804 -37.1411 0.0 21.9783 0.0 6.0899 -11.5672 9.92414 0.0 -12.0733795 0.0 3.13946 -22.046 404.183 0.0 17.9472 0.0 14.253 1.2566004 -6.99597 0.0 -21.90348 0.0 
  -0.15617199897766113 -9.702210083007813 9.199979858398438 -73.9687 82.5209 859.844 6.07982 -17.4819 -1.57373 -3.42345 9.08512 -7.99408 2.37319 42.8105 -48.2778 64.5313 -49.5373 91.7005 -117.3005 5.68126 14.2301 -48.5531 28.8531 62.5514 0.0 81.7969 0.0 -9.07935 -11.3507 -10.0584 0.0 0.0 0.0 0.0 0.0 0.0 113.3442 -11.129 1.58034 52.1685 -9.99379 -332.548 0.0 131.375 0.0 -7.54297 -15.0083 15.5206 0.0 0.0 0.0 0.0 0.0 0.0 -2.69233 -1.55353 -39.0613 0.0 22.609 0.0 6.31501 -12.1215 9.70548 0.0 -12.00586 0.0 4.12269 -21.6857 402.776 0.0 19.5745 0.0 15.5085 2.2438002 -5.87288 0.0 -20.89588 0.0 
  -0.08253270149230957 -9.836240234375 9.207310180664063 -67.7906 81.9696 856.411 6.53948 -18.0112 -1.66664 -2.99208 8.95104 -8.32784 2.85762 42.8715 -49.3934 63.1725 -49.8195 91.2252 -117.4227 5.60126 14.1033 -48.6958 28.6617 62.8064 0.0 81.5344 0.0 -8.92558 -11.6329 -9.55921 0.0 0.0 0.0 0.0 0.0 0.0 113.2823 -10.9634 1.51102 52.0736 -9.71975 -332.63 0.0 131.085 0.0 -7.29511 -15.435 15.1132 0.0 0.0 0.0 0.0 0.0 0.0 -1.33217 -1.25336 -40.9621 0.0 23.2604 0.0 6.61904 -12.5921 9.64519 0.0 -12.34179 0.0 5.2567 -21.2465 401.186 0.0 20.9864 0.0 15.6471 3.0786 -6.74067 0.0 -21.8557 0.0 
  -0.0098717200756073 -9.965269775390626 9.214420166015625 -61.7478 81.5871 853.073 6.70672 -18.4393 -1.93972 -2.376 9.08457 -8.63064 3.04547 42.7763 -49.7437 62.197 -49.7217 90.7574 -117.228 5.42971 14.0477 -49.2668 28.9745 63.1752 0.0 80.9995 0.0 -8.48843 -11.6988 -8.57273 0.0 0.0 0.0 0.0 0.0 0.0 112.9514 -10.7097 1.58147 52.2028 -9.52992 -332.807 0.0 130.846 0.0 -7.31317 -15.8282 14.5687 0.0 0.0 0.0 0.0 0.0 0.0 -0.178891 -0.909565 -42.6913 0.0 24.1293 0.0 7.17069 -12.8811 9.86132 0.0 -12.70809 0.0 6.08172 -20.4356 399.862 0.0 21.9296 0.0 17.8144 2.0599003 -6.94857 0.0 -20.10748 0.0 
  0.06138720035552978 -10.085 9.2239599609375 -55.2069 81.3286 849.163 6.89745 -18.4636 -2.14384 -1.7594 9.0001 -8.93897 2.97563 42.8087 -49.6404 61.7795 -49.5957 90.2806 -117.0061 5.4022 14.4779 -49.8156 29.5076 63.2609 0.0 80.5009 0.0 -7.71782 -11.7635 -7.74564 0.0 0.0 0.0 0.0 0.0 0.0 112.5381 -10.4305 1.13981 52.3903 -9.14385 -332.679 0.0 130.799 0.0 -7.79043 -16.1673 13.7714 0.0 0.0 0.0 0.0 0.0 0.0 0.914358 -0.487617 -43.5493 0.0 25.0249 0.0 7.44617 -13.0249 9.83991 0.0 -13.22294 0.0 6.65712 -19.2488 397.29 0.0 22.162 0.0 16.8316 1.9314003 -7.13906 0.0 -21.06075 0.0 
  0.13019100189208985 -10.19739990234375 9.240130004882813 -48.4708 81.2281 845.033 7.00382 -18.2925 -2.24397 -1.24116 8.98794 -9.09635 3.3594 42.9486 -49.8966 62.0237 -49.377 90.1862 -116.915 5.61322 14.9471 -50.0983 29.9844 63.1752 0.0 80.1169 0.0 -7.35358 -12.0991 -6.01351 0.0 0.0 0.0 0.0 0.0 0.0 112.3828 -10.3688 0.959771 52.3247 -8.87586 -332.645 0.0 130.774 0.0 -8.62023 -16.2848 12.7421 0.0 0.0 0.0 0.0 0.0 0.0 1.78047 -0.0912269 -44.0315 0.0 26.1914 0.0 7.64634 -12.775499 9.69558 0.0 -14.151757 0.0 6.97073 -17.6611 394.64 0.0 21.9099 0.0 16.026 1.3561001 -7.50425 0.0 -20.23516 0.0 
